# xmcd
#
# Track frame offsets:
#	150
#	12279
#	24638
#	35770
#	46457
#	60106
#	72816
#	83759
#	95821
#	109011
#	122401
#	135527
#	149005
#	161583
#	173705
#	184644
#	197826
#	210043
#	222315
#	236000
#
# Disc length: 3287 seconds
#
# Revision: 0
# Processed by: cddbd v1.5.2PL0 Copyright (c) Steve Scherf et al.
# Submitted via: EasyCDDAExtractor 16.0.8.2
#
DISCID=130cd514
DTITLE=Συλλογικός δίσκος - Όταν τα σλόου τα έλεγαν μπλουζ 2-6
DYEAR=2011
DGENRE=Ξένη σλόου
TTITLE0=Brenda Lee - I am sorry
TTITLE1=Elvis Presley - Love me
TTITLE2=Paul Anka - Don't ever leave me
TTITLE3=Marino Marini - Guarda che luna
TTITLE4=Julie London - The more i see you
TTITLE5=Solomon Burke - Just out of reach
TTITLE6=Adriano Celentano - Furore
TTITLE7=Nat King Cole - Maria Elena
TTITLE8=Ivory Joe Hunter - A tear fell
TTITLE9=Gloria Lasso - Matin de carnaval
TTITLE10=Jesse Belvin - Guess who
TTITLE11=Shirley Bassey - As long as he needs me
TTITLE12=James Brown - I want you so bad
TTITLE13=Sam Cooke - Teenage sonata
TTITLE14=Nappy Brown - It don't hurt no more
TTITLE15=Dalida - Le jour ou la pluie viendra
TTITLE16=The Everly Brothers - Let it be me
TTITLE17=Ivory Joe Hunter - Since i met you baby
TTITLE18=Matt Monro - That old feeling
TTITLE19=Johnnie Ray - Streets of memories
EXTD=
EXTT0=
EXTT1=
EXTT2=
EXTT3=
EXTT4=
EXTT5=
EXTT6=
EXTT7=
EXTT8=
EXTT9=
EXTT10=
EXTT11=
EXTT12=
EXTT13=
EXTT14=
EXTT15=
EXTT16=
EXTT17=
EXTT18=
EXTT19=
PLAYORDER=
